<svg width="240" height="70" viewBox="0 0 240 70" fill="none" xmlns="http://www.w3.org/2000/svg">
<rect width="240" height="70" rx="35" fill="black" fill-opacity="0.3"/>
<path d="M38.7805 42.1997C37.7538 42.1997 36.8005 42.0197 35.9205 41.6597C35.0405 41.2864 34.2672 40.773 33.6005 40.1197C32.9472 39.453 32.4405 38.6797 32.0805 37.7997C31.7338 36.9197 31.5605 35.973 31.5605 34.9597C31.5605 33.9464 31.7338 32.9997 32.0805 32.1197C32.4405 31.2397 32.9472 30.473 33.6005 29.8197C34.2672 29.1664 35.0338 28.653 35.9005 28.2797C36.7805 27.9064 37.7405 27.7197 38.7805 27.7197C39.9005 27.7197 40.8872 27.9064 41.7405 28.2797C42.5938 28.6397 43.3472 29.1397 44.0005 29.7797L42.1605 31.6197C41.7738 31.193 41.3005 30.8597 40.7405 30.6197C40.1805 30.3797 39.5272 30.2597 38.7805 30.2597C38.1272 30.2597 37.5272 30.373 36.9805 30.5997C36.4472 30.813 35.9805 31.133 35.5805 31.5597C35.1805 31.973 34.8738 32.473 34.6605 33.0597C34.4472 33.633 34.3405 34.2664 34.3405 34.9597C34.3405 35.6664 34.4472 36.3064 34.6605 36.8797C34.8738 37.453 35.1805 37.953 35.5805 38.3797C35.9805 38.793 36.4472 39.113 36.9805 39.3397C37.5272 39.5664 38.1272 39.6797 38.7805 39.6797C39.5672 39.6797 40.2405 39.5597 40.8005 39.3197C41.3738 39.0797 41.8538 38.7397 42.2405 38.2997L44.0805 40.1397C43.4272 40.793 42.6672 41.2997 41.8005 41.6597C40.9338 42.0197 39.9272 42.1997 38.7805 42.1997ZM51.985 42.2197C50.9584 42.2197 49.9984 42.033 49.105 41.6597C48.225 41.2864 47.4517 40.773 46.785 40.1197C46.1317 39.453 45.6184 38.6797 45.245 37.7997C44.8717 36.9064 44.685 35.953 44.685 34.9397C44.685 33.9264 44.865 32.9864 45.225 32.1197C45.5984 31.2397 46.1117 30.473 46.765 29.8197C47.4317 29.153 48.205 28.6397 49.085 28.2797C49.965 27.9064 50.9184 27.7197 51.945 27.7197C52.985 27.7197 53.945 27.9064 54.825 28.2797C55.705 28.6397 56.4717 29.153 57.125 29.8197C57.7917 30.473 58.3117 31.2397 58.685 32.1197C59.0584 32.9997 59.245 33.9464 59.245 34.9597C59.245 35.973 59.0584 36.9197 58.685 37.7997C58.3117 38.6797 57.7917 39.453 57.125 40.1197C56.4717 40.773 55.705 41.2864 54.825 41.6597C53.9584 42.033 53.0117 42.2197 51.985 42.2197ZM51.945 39.6797C52.8517 39.6797 53.6384 39.4797 54.305 39.0797C54.9717 38.6797 55.4917 38.1264 55.865 37.4197C56.2517 36.713 56.445 35.8864 56.445 34.9397C56.445 34.2464 56.3384 33.613 56.125 33.0397C55.9117 32.4664 55.605 31.973 55.205 31.5597C54.805 31.133 54.3317 30.8064 53.785 30.5797C53.2384 30.353 52.625 30.2397 51.945 30.2397C51.065 30.2397 50.285 30.4397 49.605 30.8397C48.9384 31.2264 48.4117 31.773 48.025 32.4797C47.6517 33.1864 47.465 34.0064 47.465 34.9397C47.465 35.6464 47.5717 36.293 47.785 36.8797C48.0117 37.4664 48.3184 37.9664 48.705 38.3797C49.105 38.793 49.5784 39.113 50.125 39.3397C50.685 39.5664 51.2917 39.6797 51.945 39.6797ZM61.4011 41.9997V27.9397H63.3011L64.1211 30.6597V41.9997H61.4011ZM71.1211 41.9997L62.7811 31.1997L63.3011 27.9397L71.6411 38.7397L71.1211 41.9997ZM71.1211 41.9997L70.3411 39.3597V27.9397H73.0811V41.9997H71.1211ZM75.9324 41.9997V27.9397H77.8324L78.6524 30.6597V41.9997H75.9324ZM85.6524 41.9997L77.3124 31.1997L77.8324 27.9397L86.1724 38.7397L85.6524 41.9997ZM85.6524 41.9997L84.8724 39.3597V27.9397H87.6124V41.9997H85.6524ZM90.4636 41.9997V27.9397H93.1836V41.9997H90.4636ZM92.4636 41.9997V39.5997H100.243V41.9997H92.4636ZM92.4636 35.9797V33.6597H99.5436V35.9797H92.4636ZM92.4636 30.3397V27.9397H100.143V30.3397H92.4636ZM108.761 42.1997C107.734 42.1997 106.781 42.0197 105.901 41.6597C105.021 41.2864 104.247 40.773 103.581 40.1197C102.927 39.453 102.421 38.6797 102.061 37.7997C101.714 36.9197 101.541 35.973 101.541 34.9597C101.541 33.9464 101.714 32.9997 102.061 32.1197C102.421 31.2397 102.927 30.473 103.581 29.8197C104.247 29.1664 105.014 28.653 105.881 28.2797C106.761 27.9064 107.721 27.7197 108.761 27.7197C109.881 27.7197 110.867 27.9064 111.721 28.2797C112.574 28.6397 113.327 29.1397 113.981 29.7797L112.141 31.6197C111.754 31.193 111.281 30.8597 110.721 30.6197C110.161 30.3797 109.507 30.2597 108.761 30.2597C108.107 30.2597 107.507 30.373 106.961 30.5997C106.427 30.813 105.961 31.133 105.561 31.5597C105.161 31.973 104.854 32.473 104.641 33.0597C104.427 33.633 104.321 34.2664 104.321 34.9597C104.321 35.6664 104.427 36.3064 104.641 36.8797C104.854 37.453 105.161 37.953 105.561 38.3797C105.961 38.793 106.427 39.113 106.961 39.3397C107.507 39.5664 108.107 39.6797 108.761 39.6797C109.547 39.6797 110.221 39.5597 110.781 39.3197C111.354 39.0797 111.834 38.7397 112.221 38.2997L114.061 40.1397C113.407 40.793 112.647 41.2997 111.781 41.6597C110.914 42.0197 109.907 42.1997 108.761 42.1997ZM119.178 41.9997V28.2397H121.918V41.9997H119.178ZM114.698 30.3597V27.9397H126.398V30.3597H114.698ZM135.43 41.9997L130.87 27.9397H133.55L136.93 38.7597H136.03L139.35 27.9397H141.37L144.69 38.7597H143.77L147.17 27.9397H149.85L145.27 41.9997H143.25L139.91 31.1997H140.79L137.47 41.9997H135.43ZM149.052 41.9997L154.712 27.9397H156.932L162.572 41.9997H159.672L155.312 30.4597H156.312L151.892 41.9997H149.052ZM152.052 39.3797V37.0997H159.612V39.3797H152.052ZM164.233 41.9997V27.9397H166.953V41.9997H164.233ZM166.233 41.9997V39.5797H173.393V41.9997H166.233ZM175.346 41.9997V27.9397H178.066V41.9997H175.346ZM177.346 41.9997V39.5797H184.506V41.9997H177.346ZM186.46 41.9997V27.9397H189.18V41.9997H186.46ZM188.46 41.9997V39.5997H196.24V41.9997H188.46ZM188.46 35.9797V33.6597H195.54V35.9797H188.46ZM188.46 30.3397V27.9397H196.14V30.3397H188.46ZM201.522 41.9997V28.2397H204.262V41.9997H201.522ZM197.042 30.3597V27.9397H208.742V30.3597H197.042Z" fill="url(#paint0_linear_95_2658)"/>
<path d="M205 1H35C16.2223 1 1 16.2223 1 35C1 53.7777 16.2223 69 35 69H205C223.778 69 239 53.7777 239 35C239 16.2223 223.778 1 205 1Z" stroke="url(#paint1_linear_95_2658)" stroke-width="2"/>
<defs>
<linearGradient id="paint0_linear_95_2658" x1="0.000292341" y1="-0.000246439" x2="240" y2="69.9997" gradientUnits="userSpaceOnUse">
<stop stop-color="#EB156C"/>
<stop offset="1" stop-color="#35A8DF"/>
</linearGradient>
<linearGradient id="paint1_linear_95_2658" x1="5.14673e-07" y1="-1.68641e-06" x2="315" y2="102.5" gradientUnits="userSpaceOnUse">
<stop stop-color="#EB156C"/>
<stop offset="1" stop-color="#35A8DF"/>
</linearGradient>
</defs>
</svg>
